<?xml version="1.0" standalone="no"?>
<!DOCTYPE svg PUBLIC "-//W3C//DTD SVG 20010904//EN"
 "http://www.w3.org/TR/2001/REC-SVG-20010904/DTD/svg10.dtd">
<svg version="1.0" xmlns="http://www.w3.org/2000/svg"
 width="225.000000pt" height="225.000000pt" viewBox="0 0 225.000000 225.000000"
 preserveAspectRatio="xMidYMid meet">
<metadata>
Created by potrace 1.16, written by Peter Selinger 2001-2019
</metadata>
<g transform="translate(0.000000,225.000000) scale(0.100000,-0.100000)"
fill="#000000" stroke="none">
<path d="M0 1423 l0 -828 287 -297 288 -298 832 0 c458 0 833 3 833 6 0 3
-128 137 -285 297 l-284 292 -1 532 0 533 284 2 284 3 -281 292 -282 292 -837
0 -838 1 0 -827z m1236 645 c8 -16 11 -28 7 -28 -5 0 10 -10 31 -23 55 -31 60
-51 10 -40 -22 4 -52 7 -69 7 -93 -4 -118 -8 -128 -21 -7 -7 -18 -20 -24 -28
-27 -29 -3 -65 42 -65 13 0 16 6 11 25 -6 24 -4 25 34 25 28 0 40 -4 40 -14 0
-9 -7 -12 -20 -9 -22 6 -29 -22 -8 -29 9 -3 7 -10 -6 -23 -12 -12 -15 -20 -7
-23 19 -6 1 -22 -25 -22 -20 0 -23 4 -19 23 4 17 -1 25 -27 37 -46 22 -57 44
-34 69 11 12 15 21 11 21 -16 0 38 49 72 65 31 15 34 20 29 46 -6 32 -4 34 23
20 15 -9 17 -6 14 22 -4 31 -4 31 12 12 9 -11 23 -32 31 -47z m-491 -473 c31
-30 33 -77 5 -105 -15 -15 -33 -20 -70 -20 l-50 0 0 75 0 75 45 0 c35 0 52 -6
70 -25z m-366 -230 c74 -38 43 -145 -41 -145 -38 0 -78 40 -78 79 0 20 9 37
31 55 35 30 49 32 88 11z m186 -5 c18 -15 20 -71 3 -88 -9 -9 -7 -16 7 -32 18
-19 18 -20 -2 -20 -11 0 -28 9 -38 20 -10 11 -24 20 -32 20 -7 0 -13 -9 -13
-20 0 -11 -7 -20 -15 -20 -12 0 -15 16 -15 81 l0 82 45 -5 c25 -3 52 -11 60
-18z m-164 -240 c21 -12 27 -68 8 -87 -8 -8 -8 -17 0 -32 10 -18 9 -21 -8 -21
-11 0 -25 9 -31 20 -6 11 -17 20 -25 20 -8 0 -15 -9 -15 -20 0 -13 -7 -20 -20
-20 -18 0 -20 7 -20 75 l0 75 46 0 c25 0 54 -5 65 -10z m91 -257 c51 -51 6
-133 -73 -133 l-39 0 0 81 0 82 46 -6 c27 -3 54 -13 66 -24z m614 21 c33 -9
48 -50 30 -84 -12 -25 -12 -31 1 -49 13 -19 12 -21 -6 -21 -12 0 -26 9 -33 20
-7 11 -21 20 -30 20 -11 0 -18 -8 -18 -20 0 -11 -7 -20 -15 -20 -12 0 -15 16
-15 80 l0 80 33 0 c17 0 42 -3 53 -6z"/>
</g>
</svg>
